<?xml version="1.0" encoding="UTF-8" standalone="no"?>
<svg
   xmlns:dc="http://purl.org/dc/elements/1.1/"
   xmlns:cc="http://creativecommons.org/ns#"
   xmlns:rdf="http://www.w3.org/1999/02/22-rdf-syntax-ns#"
   xmlns:svg="http://www.w3.org/2000/svg"
   xmlns="http://www.w3.org/2000/svg"
   xmlns:sodipodi="http://sodipodi.sourceforge.net/DTD/sodipodi-0.dtd"
   xmlns:inkscape="http://www.inkscape.org/namespaces/inkscape"
   id="Layer_1"
   data-name="Layer 1"
   viewBox="0 0 2000 2000"
   version="1.1"
   sodipodi:docname="logo-rhr.svg"
   inkscape:version="0.92.3 (2405546, 2018-03-11)">
  <metadata
     id="metadata224">
    <rdf:RDF>
      <cc:Work
         rdf:about="">
        <dc:format>image/svg+xml</dc:format>
        <dc:type
           rdf:resource="http://purl.org/dc/dcmitype/StillImage" />
      </cc:Work>
    </rdf:RDF>
  </metadata>
  <sodipodi:namedview
     pagecolor="#ffffff"
     bordercolor="#666666"
     borderopacity="1"
     objecttolerance="10"
     gridtolerance="10"
     guidetolerance="10"
     inkscape:pageopacity="0"
     inkscape:pageshadow="2"
     inkscape:window-width="1920"
     inkscape:window-height="1017"
     id="namedview222"
     showgrid="false"
     inkscape:zoom="0.118"
     inkscape:cx="-266.94915"
     inkscape:cy="1000"
     inkscape:window-x="-8"
     inkscape:window-y="-8"
     inkscape:window-maximized="1"
     inkscape:current-layer="Layer_1" />
  <defs
     id="defs145">
    <style
       id="style143">.cls-1{fill:#fff;}</style>
  </defs>
  <title
     id="title147">Untitled-3</title>
  <rect
     width="2000"
     height="694.91522"
     id="rect149"
     x="8.4746466"
     y="677.96606"
     style="stroke-width:0.58945537;fill:none" />
  <path
     class="cls-1"
     d="m 979.76461,1303.6092 a 2.31,2.31 0 0 1 -0.24,1.11 1.88,1.88 0 0 1 -1.14,0.76 11.42,11.42 0 0 1 -2.65,0.42 c -1.17,0.08 -2.75,0.12 -4.76,0.12 -1.69,0 -3,0 -4,-0.12 a 9.32,9.32 0 0 1 -2.38,-0.45 2.55,2.55 0 0 1 -1.24,-0.85 4.55,4.55 0 0 1 -0.6,-1.23 l -7,-17.4 c -0.84,-2 -1.66,-3.71 -2.47,-5.25 a 17,17 0 0 0 -2.67,-3.82 9.82,9.82 0 0 0 -3.41,-2.31 11.78,11.78 0 0 0 -4.45,-0.79 h -4.94 v 29.69 a 1.67,1.67 0 0 1 -0.39,1.08 2.74,2.74 0 0 1 -1.29,0.79 12.88,12.88 0 0 1 -2.41,0.48 41,41 0 0 1 -7.68,0 12.6,12.6 0 0 1 -2.44,-0.48 2.57,2.57 0 0 1 -1.27,-0.79 1.76,1.76 0 0 1 -0.36,-1.08 v -70.76 a 4.77,4.77 0 0 1 1.36,-3.82 4.94,4.94 0 0 1 3.34,-1.18 h 20.17 c 2,0 3.73,0 5.06,0.12 1.33,0.12 2.53,0.18 3.61,0.3 a 33,33 0 0 1 8.47,2.29 20.29,20.29 0 0 1 6.38,4.25 17.57,17.57 0 0 1 4,6.2 22.55,22.55 0 0 1 1.39,8.22 23.93,23.93 0 0 1 -1,7.14 18.25,18.25 0 0 1 -2.92,5.75 19.45,19.45 0 0 1 -4.75,4.4 25.89,25.89 0 0 1 -6.45,3 17.26,17.26 0 0 1 6.18,5 28.24,28.24 0 0 1 2.55,3.92 48.25,48.25 0 0 1 2.35,5 l 6.57,15.36 c 0.6,1.53 1,2.64 1.2,3.34 a 6.57,6.57 0 0 1 0.28,1.59 z m -20.41,-52.87 a 11.55,11.55 0 0 0 -1.75,-6.51 9.49,9.49 0 0 0 -5.72,-3.73 21.72,21.72 0 0 0 -2.74,-0.48 38.17,38.17 0 0 0 -4.25,-0.19 h -7.1 v 22.12 h 8.07 a 19.07,19.07 0 0 0 5.9,-0.82 11.7,11.7 0 0 0 4.22,-2.29 9.33,9.33 0 0 0 2.52,-3.51 11.83,11.83 0 0 0 0.85,-4.59 z"
     id="path151"
     inkscape:connector-curvature="0"
     style="fill:#ffffff" />
  <path
     class="cls-1"
     d="m 1086.9146,1299.4592 a 26,26 0 0 1 -0.15,2.92 7.91,7.91 0 0 1 -0.46,1.89 2.39,2.39 0 0 1 -0.75,1.06 1.63,1.63 0 0 1 -1,0.32 h -39.08 a 4.89,4.89 0 0 1 -3.35,-1.17 4.81,4.81 0 0 1 -1.35,-3.82 v -67.93 a 4.81,4.81 0 0 1 1.35,-3.82 5,5 0 0 1 3.35,-1.18 h 38.9 a 1.61,1.61 0 0 1 1,0.3 2.29,2.29 0 0 1 0.72,1.06 7.93,7.93 0 0 1 0.46,1.93 26.33,26.33 0 0 1 0.15,3 24.89,24.89 0 0 1 -0.15,2.85 7.43,7.43 0 0 1 -0.46,1.9 2.59,2.59 0 0 1 -0.72,1.06 1.51,1.51 0 0 1 -1,0.33 h -27.9 v 19 h 23.54 a 1.6,1.6 0 0 1 1,0.33 2.43,2.43 0 0 1 0.75,1 7,7 0 0 1 0.45,1.87 27.63,27.63 0 0 1 0,5.75 7.16,7.16 0 0 1 -0.45,1.84 2.2,2.2 0 0 1 -0.75,1 1.78,1.78 0 0 1 -1,0.3 h -23.54 v 22 h 28.06 a 1.59,1.59 0 0 1 1,0.34 2.35,2.35 0 0 1 0.75,1 7.91,7.91 0 0 1 0.46,1.89 26,26 0 0 1 0.17,2.98 z"
     id="path153"
     inkscape:connector-curvature="0"
     style="fill:#ffffff" />
  <path
     class="cls-1"
     d="m 1214.4746,1300.1092 a 6.1,6.1 0 0 1 -0.48,2.48 5.19,5.19 0 0 1 -1.29,1.8 5,5 0 0 1 -1.93,1.06 8.24,8.24 0 0 1 -2.26,0.33 h -6.74 a 13.85,13.85 0 0 1 -3.64,-0.42 7.15,7.15 0 0 1 -2.83,-1.54 13.51,13.51 0 0 1 -2.51,-3 c -0.8,-1.27 -1.7,-2.9 -2.71,-4.91 l -19.38,-36.43 q -1.7,-3.26 -3.44,-7 c -1.17,-2.51 -2.2,-5 -3.13,-7.32 h -0.12 c 0.16,2.89 0.28,5.78 0.36,8.64 0.08,2.86 0.12,5.84 0.12,8.89 v 40.77 a 1.86,1.86 0 0 1 -0.33,1.08 2.41,2.41 0 0 1 -1.14,0.82 9.31,9.31 0 0 1 -2.2,0.51 28.5,28.5 0 0 1 -3.55,0.18 28.07,28.07 0 0 1 -3.5,-0.18 8.79,8.79 0 0 1 -2.17,-0.51 2.21,2.21 0 0 1 -1.08,-0.82 2,2 0 0 1 -0.3,-1.08 v -70 a 5.28,5.28 0 0 1 1.65,-4.24 6.1,6.1 0 0 1 4.07,-1.42 h 8.53 a 15.73,15.73 0 0 1 3.86,0.4 7.88,7.88 0 0 1 2.8,1.29 10.05,10.05 0 0 1 2.31,2.5 31.43,31.43 0 0 1 2.23,3.94 l 15.18,28.49 q 1.32,2.6 2.62,5.08 c 0.86,1.67 1.69,3.33 2.5,5 l 2.34,4.91 c 0.77,1.61 1.51,3.21 2.23,4.82 h 0.06 q -0.18,-4.21 -0.27,-8.79 c -0.06,-3.06 -0.09,-6 -0.09,-8.73 v -36.56 a 1.78,1.78 0 0 1 0.36,-1.09 2.93,2.93 0 0 1 1.21,-0.84 7.92,7.92 0 0 1 2.23,-0.51 34,34 0 0 1 3.55,-0.15 32.71,32.71 0 0 1 3.43,0.15 6.77,6.77 0 0 1 2.14,0.51 2.43,2.43 0 0 1 1,0.84 2,2 0 0 1 0.3,1.09 z"
     id="path155"
     inkscape:connector-curvature="0"
     style="fill:#ffffff" />
  <path
     class="cls-1"
     d="m 1326.9746,1299.4592 a 23.79,23.79 0 0 1 -0.15,2.92 8,8 0 0 1 -0.45,1.89 2.4,2.4 0 0 1 -0.76,1.06 1.63,1.63 0 0 1 -1,0.32 h -39.14 a 4.91,4.91 0 0 1 -3.35,-1.17 4.81,4.81 0 0 1 -1.35,-3.82 v -67.93 a 4.81,4.81 0 0 1 1.35,-3.82 5,5 0 0 1 3.35,-1.18 h 38.9 a 1.61,1.61 0 0 1 1,0.3 2.29,2.29 0 0 1 0.72,1.06 7.93,7.93 0 0 1 0.46,1.93 26.33,26.33 0 0 1 0.15,3 24.89,24.89 0 0 1 -0.15,2.85 7.43,7.43 0 0 1 -0.46,1.9 2.59,2.59 0 0 1 -0.72,1.06 1.51,1.51 0 0 1 -1,0.33 h -27.82 v 19 h 23.54 a 1.6,1.6 0 0 1 1,0.33 2.43,2.43 0 0 1 0.75,1 7,7 0 0 1 0.45,1.87 27.63,27.63 0 0 1 0,5.75 7.16,7.16 0 0 1 -0.45,1.84 2.2,2.2 0 0 1 -0.75,1 1.78,1.78 0 0 1 -1,0.3 h -23.54 v 22 h 28.06 a 1.59,1.59 0 0 1 1,0.34 2.37,2.37 0 0 1 0.76,1 8,8 0 0 1 0.45,1.89 23.85,23.85 0 0 1 0.15,2.98 z"
     id="path157"
     inkscape:connector-curvature="0"
     style="fill:#ffffff" />
  <path
     class="cls-1"
     d="m 1472.2946,1301.6192 a 6.67,6.67 0 0 1 -1,2.32 4,4 0 0 1 -1.9,1.33 12.37,12.37 0 0 1 -3.25,0.59 c -1.33,0.11 -3,0.16 -5.06,0.16 -2.29,0 -4.13,0 -5.51,-0.16 a 11.78,11.78 0 0 1 -3.28,-0.59 3.38,3.38 0 0 1 -1.75,-1.33 7.15,7.15 0 0 1 -0.84,-2.32 l -12.47,-49.38 h -0.12 l -11.8,49.38 a 6.89,6.89 0 0 1 -0.85,2.26 3.44,3.44 0 0 1 -1.71,1.36 10.5,10.5 0 0 1 -3.19,0.62 c -1.35,0.11 -3.13,0.16 -5.33,0.16 -2.2,0 -4.19,0 -5.57,-0.16 a 11.78,11.78 0 0 1 -3.28,-0.59 3.38,3.38 0 0 1 -1.75,-1.33 8.13,8.13 0 0 1 -0.9,-2.32 l -17.71,-68 a 18.88,18.88 0 0 1 -0.6,-3.41 2.23,2.23 0 0 1 0.69,-1.89 4.22,4.22 0 0 1 2.47,-0.82 c 1.14,-0.1 2.74,-0.15 4.79,-0.15 1.89,0 3.38,0 4.48,0.09 a 8.09,8.09 0 0 1 2.5,0.43 1.91,1.91 0 0 1 1.15,1 6.67,6.67 0 0 1 0.48,1.77 l 13.67,59.68 h 0.06 l 14.21,-59.26 a 6.6,6.6 0 0 1 0.64,-1.86 2.61,2.61 0 0 1 1.32,-1.12 9.27,9.27 0 0 1 2.56,-0.54 c 1.08,-0.1 2.53,-0.15 4.33,-0.15 1.8,0 3.46,0 4.61,0.12 a 8.39,8.39 0 0 1 2.65,0.52 2.71,2.71 0 0 1 1.36,1.1 6.47,6.47 0 0 1 0.66,1.93 l 14.69,59.26 h 0.12 l 13.67,-59.5 a 7.74,7.74 0 0 1 0.48,-1.65 2.2,2.2 0 0 1 1.15,-1.09 7.92,7.92 0 0 1 2.41,-0.54 c 1,-0.1 2.5,-0.15 4.39,-0.15 1.89,0 3.15,0 4.13,0.15 a 3.44,3.44 0 0 1 2.14,0.82 2.39,2.39 0 0 1 0.57,1.95 21.59,21.59 0 0 1 -0.64,3.52 z"
     id="path159"
     inkscape:connector-curvature="0"
     style="fill:#ffffff" />
  <path
     class="cls-1"
     d="m 1609.4746,1299.7492 a 21.56,21.56 0 0 1 0.91,3.44 2,2 0 0 1 -0.49,1.89 3.78,3.78 0 0 1 -2.34,0.78 c -1.13,0.11 -2.67,0.16 -4.64,0.16 -1.97,0 -3.65,0 -4.79,-0.09 a 13.13,13.13 0 0 1 -2.62,-0.36 2.38,2.38 0 0 1 -1.26,-0.76 3.89,3.89 0 0 1 -0.61,-1.26 l -5.24,-15.66 h -29.26 l -4.94,15.24 a 5,5 0 0 1 -0.63,1.42 2.67,2.67 0 0 1 -1.27,0.9 9.6,9.6 0 0 1 -2.47,0.45 c -1.06,0.08 -2.45,0.12 -4.18,0.12 a 40.35,40.35 0 0 1 -4.34,-0.18 3.3,3.3 0 0 1 -2.17,-0.88 2.34,2.34 0 0 1 -0.42,-2 19,19 0 0 1 0.91,-3.38 l 24,-69.13 a 5.77,5.77 0 0 1 0.84,-1.65 2.85,2.85 0 0 1 1.53,-1 11.69,11.69 0 0 1 2.92,-0.43 c 1.25,-0.06 2.89,-0.09 4.94,-0.09 2.37,0 4.26,0 5.66,0.09 a 14.53,14.53 0 0 1 3.29,0.43 3,3 0 0 1 1.68,1 5.87,5.87 0 0 1 0.87,1.81 z m -35.77,-57.15 h -0.06 l -11,33.13 h 22.1 z"
     id="path161"
     inkscape:connector-curvature="0"
     style="fill:#ffffff" />
  <path
     class="cls-1"
     d="m 1712.4746,1299.0292 a 25.84,25.84 0 0 1 -0.15,3 9.14,9.14 0 0 1 -0.45,2.05 2.58,2.58 0 0 1 -0.75,1.17 1.66,1.66 0 0 1 -1.06,0.36 h -35.71 a 4.88,4.88 0 0 1 -3.34,-1.17 4.77,4.77 0 0 1 -1.36,-3.82 v -70.67 a 1.67,1.67 0 0 1 0.39,-1.08 2.84,2.84 0 0 1 1.3,-0.79 12.6,12.6 0 0 1 2.44,-0.48 41,41 0 0 1 7.68,0 12.71,12.71 0 0 1 2.41,0.48 2.74,2.74 0 0 1 1.29,0.79 1.67,1.67 0 0 1 0.39,1.08 v 62.69 h 24.51 a 1.76,1.76 0 0 1 1.06,0.33 2.46,2.46 0 0 1 0.75,1.08 8.29,8.29 0 0 1 0.45,2 25.54,25.54 0 0 1 0.15,2.98 z"
     id="path163"
     inkscape:connector-curvature="0"
     style="fill:#ffffff" />
  <path
     class="cls-1"
     d="m 482.98461,1176.9992 a 4.09,4.09 0 0 1 -0.41,1.91 3.32,3.32 0 0 1 -2,1.29 20.06,20.06 0 0 1 -4.55,0.72 q -3,0.21 -8.17,0.21 -4.34,0 -6.92,-0.21 a 15.41,15.41 0 0 1 -4.09,-0.77 4.51,4.51 0 0 1 -2.12,-1.45 7.9,7.9 0 0 1 -1,-2.12 l -12,-29.87 q -2.17,-5.07 -4.24,-9 a 28.92,28.92 0 0 0 -4.6,-6.56 16.87,16.87 0 0 0 -5.84,-4 20.33,20.33 0 0 0 -7.65,-1.34 h -8.48 v 51 a 2.86,2.86 0 0 1 -0.67,1.86 4.71,4.71 0 0 1 -2.22,1.34 21.54,21.54 0 0 1 -4.14,0.83 70.2,70.2 0 0 1 -13.18,0 21.55,21.55 0 0 1 -4.18,-0.83 4.29,4.29 0 0 1 -2.17,-1.34 3,3 0 0 1 -0.62,-1.86 v -121.48 q 0,-4.55 2.32,-6.57 a 8.48,8.48 0 0 1 5.74,-2 h 34.68 c 3.51,0 6.41,0.07 8.68,0.21 2.27,0.14 4.35,0.31 6.2,0.51 a 56.48,56.48 0 0 1 14.53,3.93 34.89,34.89 0 0 1 11,7.29 30.44,30.44 0 0 1 6.87,10.65 39,39 0 0 1 2.38,14.1 41.31,41.31 0 0 1 -1.71,12.25 31.64,31.64 0 0 1 -5,9.88 33.19,33.19 0 0 1 -8.17,7.54 44.19,44.19 0 0 1 -11.06,5.17 31.63,31.63 0 0 1 5.64,3.51 30.61,30.61 0 0 1 5,5 47.05,47.05 0 0 1 4.4,6.72 86.67,86.67 0 0 1 4,8.52 l 11.27,26.37 c 1,2.61 1.72,4.53 2.07,5.73 a 11.29,11.29 0 0 1 0.41,2.86 z m -35,-90.77 a 19.84,19.84 0 0 0 -3,-11.16 q -3,-4.55 -9.82,-6.41 a 39.39,39.39 0 0 0 -4.7,-0.83 67.88,67.88 0 0 0 -7.29,-0.31 h -12.2 v 37.94 h 13.86 a 32.93,32.93 0 0 0 10.13,-1.4 20,20 0 0 0 7.23,-3.92 16,16 0 0 0 4.34,-6 20.35,20.35 0 0 0 1.41,-7.91 z"
     id="path165"
     inkscape:connector-curvature="0"
     style="fill:#ffffff" />
  <path
     class="cls-1"
     d="m 612.10461,1130.6792 a 62.54,62.54 0 0 1 -3.63,22 43.15,43.15 0 0 1 -10.64,16.44 46.27,46.27 0 0 1 -17.36,10.25 73.8,73.8 0 0 1 -23.77,3.52 75.39,75.39 0 0 1 -22.64,-3.16 43.73,43.73 0 0 1 -17,-9.56 41.71,41.71 0 0 1 -10.6,-16 62.2,62.2 0 0 1 -3.67,-22.38 v -81.35 a 3,3 0 0 1 0.62,-1.86 4.32,4.32 0 0 1 2.23,-1.34 21.75,21.75 0 0 1 4.18,-0.83 56.75,56.75 0 0 1 6.62,-0.31 55.64,55.64 0 0 1 6.51,0.31 20.68,20.68 0 0 1 4.13,0.83 4.61,4.61 0 0 1 2.22,1.34 2.87,2.87 0 0 1 0.68,1.86 v 79 a 43.37,43.37 0 0 0 2,13.8 25.48,25.48 0 0 0 5.63,9.67 23.43,23.43 0 0 0 8.79,5.74 32.55,32.55 0 0 0 11.43,1.91 31.75,31.75 0 0 0 11.47,-2 22.8,22.8 0 0 0 8.58,-5.74 25.86,25.86 0 0 0 5.42,-9.3 38.24,38.24 0 0 0 1.92,-12.57 v -80.52 a 3,3 0 0 1 0.62,-1.86 4.29,4.29 0 0 1 2.17,-1.34 20.82,20.82 0 0 1 4.18,-0.83 57.12,57.12 0 0 1 6.57,-0.31 54.25,54.25 0 0 1 6.46,0.31 20.54,20.54 0 0 1 4.08,0.83 4.29,4.29 0 0 1 2.17,1.34 3,3 0 0 1 0.63,1.86 z"
     id="path167"
     inkscape:connector-curvature="0"
     style="fill:#ffffff" />
  <path
     class="cls-1"
     d="m 720.47461,1140.3992 a 41.27,41.27 0 0 1 -4,18.55 38.36,38.36 0 0 1 -10.65,13.29 46.39,46.39 0 0 1 -15.71,8 67,67 0 0 1 -19.23,2.69 68.4,68.4 0 0 1 -12.87,-1.14 73.11,73.11 0 0 1 -10.49,-2.74 46.23,46.23 0 0 1 -7.6,-3.36 21.61,21.61 0 0 1 -4.39,-3.1 7.71,7.71 0 0 1 -1.91,-3.88 35.19,35.19 0 0 1 -0.57,-7.28 c 0,-2.14 0.07,-3.93 0.21,-5.38 a 15,15 0 0 1 0.67,-3.51 3.84,3.84 0 0 1 1.24,-1.92 3,3 0 0 1 1.8,-0.56 8.54,8.54 0 0 1 4.09,1.7 69.5,69.5 0 0 0 6.77,3.77 61.22,61.22 0 0 0 9.87,3.78 47,47 0 0 0 13.28,1.7 30.37,30.37 0 0 0 8.89,-1.19 19.73,19.73 0 0 0 6.67,-3.36 14.23,14.23 0 0 0 4.19,-5.37 17.24,17.24 0 0 0 1.45,-7.13 12.49,12.49 0 0 0 -2.49,-7.81 24.64,24.64 0 0 0 -6.46,-5.79 67.27,67.27 0 0 0 -9,-4.75 q -5.07,-2.22 -10.44,-4.71 a 93.79,93.79 0 0 1 -10.44,-5.63 42.3,42.3 0 0 1 -9,-7.54 35.68,35.68 0 0 1 -6.47,-10.39 42.27,42.27 0 0 1 1.09,-31.27 34.76,34.76 0 0 1 9.61,-12.1 40.89,40.89 0 0 1 14.27,-7.18 62.17,62.17 0 0 1 17.41,-2.38 63.44,63.44 0 0 1 9.51,0.72 65.4,65.4 0 0 1 8.89,2 48.88,48.88 0 0 1 7.34,2.79 17.32,17.32 0 0 1 4.24,2.58 7.77,7.77 0 0 1 1.4,1.76 8.23,8.23 0 0 1 0.62,1.91 20.55,20.55 0 0 1 0.36,3 c 0.07,1.21 0.1,2.71 0.1,4.5 0,2 -0.05,3.68 -0.15,5.06 a 19.44,19.44 0 0 1 -0.52,3.41 4.15,4.15 0 0 1 -1,2 2.58,2.58 0 0 1 -1.81,0.62 8.56,8.56 0 0 1 -3.62,-1.45 c -1.65,-1 -3.69,-2 -6.1,-3.15 a 57.54,57.54 0 0 0 -8.37,-3.1 37,37 0 0 0 -10.44,-1.4 24.76,24.76 0 0 0 -7.76,1.09 16,16 0 0 0 -5.52,3 11.81,11.81 0 0 0 -3.31,4.61 14.88,14.88 0 0 0 -1.09,5.68 12.52,12.52 0 0 0 2.43,7.7 23.38,23.38 0 0 0 6.51,5.79 70.5,70.5 0 0 0 9.25,4.75 c 3.45,1.49 7,3 10.55,4.71 a 102.91,102.91 0 0 1 10.54,5.63 42.23,42.23 0 0 1 9.2,7.55 35.18,35.18 0 0 1 6.52,10.34 36.25,36.25 0 0 1 2.44,13.89 z"
     id="path169"
     inkscape:connector-curvature="0"
     style="fill:#ffffff" />
  <path
     class="cls-1"
     d="m 820.47461,1140.3992 a 41.27,41.27 0 0 1 -3.93,18.5 38.36,38.36 0 0 1 -10.65,13.29 46.39,46.39 0 0 1 -15.71,8 67,67 0 0 1 -19.23,2.69 68.4,68.4 0 0 1 -12.87,-1.14 73.11,73.11 0 0 1 -10.49,-2.74 46.23,46.23 0 0 1 -7.6,-3.36 21.61,21.61 0 0 1 -4.39,-3.1 7.71,7.71 0 0 1 -1.91,-3.88 35.19,35.19 0 0 1 -0.57,-7.28 c 0,-2.14 0.07,-3.93 0.21,-5.38 a 15,15 0 0 1 0.67,-3.51 3.84,3.84 0 0 1 1.24,-1.92 3,3 0 0 1 1.8,-0.56 8.54,8.54 0 0 1 4.09,1.7 69.5,69.5 0 0 0 6.77,3.77 61.59,61.59 0 0 0 9.87,3.78 47,47 0 0 0 13.29,1.7 30.34,30.34 0 0 0 8.88,-1.19 19.73,19.73 0 0 0 6.67,-3.36 14.23,14.23 0 0 0 4.19,-5.37 17.24,17.24 0 0 0 1.45,-7.13 12.49,12.49 0 0 0 -2.49,-7.81 24.64,24.64 0 0 0 -6.46,-5.79 67.27,67.27 0 0 0 -9,-4.75 q -5.07,-2.22 -10.44,-4.71 a 93.79,93.79 0 0 1 -10.44,-5.63 42.3,42.3 0 0 1 -9,-7.54 35.68,35.68 0 0 1 -6.47,-10.39 42.27,42.27 0 0 1 1.09,-31.27 34.76,34.76 0 0 1 9.61,-12.1 40.89,40.89 0 0 1 14.27,-7.18 62.17,62.17 0 0 1 17.41,-2.38 63.34,63.34 0 0 1 9.51,0.72 65.4,65.4 0 0 1 8.89,2 48.88,48.88 0 0 1 7.34,2.79 17.32,17.32 0 0 1 4.24,2.58 7.49,7.49 0 0 1 1.4,1.76 8.23,8.23 0 0 1 0.62,1.91 20.55,20.55 0 0 1 0.36,3 c 0.07,1.21 0.1,2.71 0.1,4.5 0,2 0,3.68 -0.15,5.06 a 19.44,19.44 0 0 1 -0.52,3.41 4.15,4.15 0 0 1 -1,2 2.58,2.58 0 0 1 -1.81,0.62 8.56,8.56 0 0 1 -3.62,-1.45 c -1.65,-1 -3.69,-2 -6.1,-3.15 a 57.54,57.54 0 0 0 -8.37,-3.1 37,37 0 0 0 -10.44,-1.4 24.76,24.76 0 0 0 -7.76,1.09 16,16 0 0 0 -5.52,3 11.81,11.81 0 0 0 -3.31,4.61 14.88,14.88 0 0 0 -1.09,5.68 12.52,12.52 0 0 0 2.43,7.7 23.38,23.38 0 0 0 6.51,5.79 70.5,70.5 0 0 0 9.25,4.75 c 3.45,1.49 7,3 10.55,4.71 a 102.91,102.91 0 0 1 10.54,5.63 42.23,42.23 0 0 1 9.2,7.55 35.18,35.18 0 0 1 6.52,10.34 36.25,36.25 0 0 1 2.37,13.94 z"
     id="path171"
     inkscape:connector-curvature="0"
     style="fill:#ffffff" />
  <path
     class="cls-1"
     d="m 920.55461,1169.8592 a 41.07,41.07 0 0 1 -0.26,5 12.94,12.94 0 0 1 -0.77,3.25 4.18,4.18 0 0 1 -1.3,1.81 2.79,2.79 0 0 1 -1.7,0.57 h -67.19 a 8.42,8.42 0 0 1 -5.74,-2 q -2.32,-2 -2.33,-6.56 v -116.6 q 0,-4.55 2.33,-6.57 a 8.46,8.46 0 0 1 5.74,-2 h 66.78 a 2.72,2.72 0 0 1 1.65,0.52 4,4 0 0 1 1.24,1.8 14.55,14.55 0 0 1 0.78,3.31 42.32,42.32 0 0 1 0.25,5.12 40.16,40.16 0 0 1 -0.25,4.91 13.56,13.56 0 0 1 -0.78,3.26 4.42,4.42 0 0 1 -1.24,1.8 2.58,2.58 0 0 1 -1.65,0.57 h -47.76 v 32.67 h 40.42 a 2.84,2.84 0 0 1 1.7,0.56 4.21,4.21 0 0 1 1.29,1.76 12.23,12.23 0 0 1 0.78,3.21 47,47 0 0 1 0,9.87 12,12 0 0 1 -0.78,3.15 3.74,3.74 0 0 1 -1.29,1.68 3,3 0 0 1 -1.7,0.52 h -40.42 v 37.72 h 48.17 a 2.85,2.85 0 0 1 1.7,0.57 4.18,4.18 0 0 1 1.3,1.81 13.15,13.15 0 0 1 0.77,3.26 40.78,40.78 0 0 1 0.26,5.03 z"
     id="path173"
     inkscape:connector-curvature="0"
     style="fill:#ffffff" />
  <path
     class="cls-1"
     d="m 1018.0346,1169.1392 a 44.58,44.58 0 0 1 -0.26,5.22 15.93,15.93 0 0 1 -0.77,3.51 4.64,4.64 0 0 1 -1.29,2 2.86,2.86 0 0 1 -1.82,0.62 h -61.29999 a 8.41,8.41 0 0 1 -5.73,-2 q -2.32,-2 -2.33,-6.56 v -121.46 a 2.87,2.87 0 0 1 0.68,-1.86 4.66,4.66 0 0 1 2.22,-1.34 20.82,20.82 0 0 1 4.18,-0.83 70.31,70.31 0 0 1 13.19,0 20.83,20.83 0 0 1 4.13,0.83 4.71,4.71 0 0 1 2.22,1.34 2.86,2.86 0 0 1 0.67,1.86 v 107.61 h 42.06999 a 3,3 0 0 1 1.82,0.57 4.25,4.25 0 0 1 1.29,1.86 14.09,14.09 0 0 1 0.77,3.41 44.58,44.58 0 0 1 0.26,5.22 z"
     id="path175"
     inkscape:connector-curvature="0"
     style="fill:#ffffff" />
  <path
     class="cls-1"
     d="m 1107.5546,1169.1392 a 44.58,44.58 0 0 1 -0.26,5.22 15.93,15.93 0 0 1 -0.77,3.51 4.56,4.56 0 0 1 -1.3,2 2.84,2.84 0 0 1 -1.81,0.62 h -61.3 a 8.41,8.41 0 0 1 -5.73,-2 c -1.56,-1.34 -2.33,-3.53 -2.33,-6.56 v -121.46 a 2.86,2.86 0 0 1 0.67,-1.86 4.71,4.71 0 0 1 2.22,-1.34 20.94,20.94 0 0 1 4.19,-0.83 70.2,70.2 0 0 1 13.18,0 20.68,20.68 0 0 1 4.13,0.83 4.69,4.69 0 0 1 2.23,1.34 2.91,2.91 0 0 1 0.67,1.86 v 107.61 h 42.07 a 3,3 0 0 1 1.81,0.57 4.18,4.18 0 0 1 1.3,1.86 14.09,14.09 0 0 1 0.77,3.41 44.58,44.58 0 0 1 0.26,5.22 z"
     id="path177"
     inkscape:connector-curvature="0"
     style="fill:#ffffff" />
  <path
     class="cls-1"
     d="m 1275.8346,1176.7892 a 2.86,2.86 0 0 1 -0.67,1.86 4.71,4.71 0 0 1 -2.22,1.34 21.38,21.38 0 0 1 -4.14,0.83 55.52,55.52 0 0 1 -6.51,0.31 57.87,57.87 0 0 1 -6.66,-0.31 20.45,20.45 0 0 1 -4.14,-0.83 4.67,4.67 0 0 1 -2.17,-1.34 2.86,2.86 0 0 1 -0.67,-1.86 v -54.06 h -50 v 54.06 a 3,3 0 0 1 -0.62,1.86 4.37,4.37 0 0 1 -2.18,1.34 21.41,21.41 0 0 1 -4.13,0.83 70.2,70.2 0 0 1 -13.18,0 21.68,21.68 0 0 1 -4.19,-0.83 4.71,4.71 0 0 1 -2.22,-1.34 2.86,2.86 0 0 1 -0.67,-1.86 v -126.32 a 2.86,2.86 0 0 1 0.67,-1.86 4.71,4.71 0 0 1 2.22,-1.34 20.94,20.94 0 0 1 4.19,-0.83 70.2,70.2 0 0 1 13.18,0 20.68,20.68 0 0 1 4.13,0.83 4.37,4.37 0 0 1 2.18,1.34 3,3 0 0 1 0.62,1.86 v 49.1 h 50 v -49.1 a 2.86,2.86 0 0 1 0.67,-1.86 4.67,4.67 0 0 1 2.17,-1.34 19.78,19.78 0 0 1 4.14,-0.83 57.87,57.87 0 0 1 6.66,-0.31 55.52,55.52 0 0 1 6.51,0.31 20.65,20.65 0 0 1 4.14,0.83 4.71,4.71 0 0 1 2.22,1.34 2.86,2.86 0 0 1 0.67,1.86 z"
     id="path179"
     inkscape:connector-curvature="0"
     style="fill:#ffffff" />
  <path
     class="cls-1"
     d="m 1425.3146,1112.0792 a 98.84,98.84 0 0 1 -4.14,29.77 59.89,59.89 0 0 1 -12.3,22.27 52.91,52.91 0 0 1 -20.21,14 q -12,4.8 -27.86,4.81 -15.61,0 -27.24,-4.09 a 47.23,47.23 0 0 1 -19.38,-12.45 q -7.76,-8.39 -11.63,-21.3 -3.87,-12.91 -3.87,-30.59 a 96.22,96.22 0 0 1 4.13,-29.21 59.87,59.87 0 0 1 12.3,-22.07 53.79,53.79 0 0 1 20.21,-14 q 12,-4.86 28,-4.86 a 82.05,82.05 0 0 1 26.83,4 47.12,47.12 0 0 1 19.43,12.41 54,54 0 0 1 11.79,21.14 q 3.94,12.8 3.94,30.17 z m -28.53,1.44 a 101.63,101.63 0 0 0 -1.66,-19.17 41.25,41.25 0 0 0 -5.63,-14.78 27,27 0 0 0 -10.6,-9.51 q -6.62,-3.36 -16.53,-3.36 -9.91,0 -16.75,3.77 a 30.92,30.92 0 0 0 -10.86,10.08 41.76,41.76 0 0 0 -5.84,14.73 89.55,89.55 0 0 0 -1.7,17.83 106.55,106.55 0 0 0 1.65,19.69 42.27,42.27 0 0 0 5.58,14.94 25.65,25.65 0 0 0 10.55,9.46 q 6.6,3.26 16.64,3.25 10.04,-0.01 16.74,-3.72 a 29.92,29.92 0 0 0 10.86,-10.13 42.69,42.69 0 0 0 5.84,-14.93 92.22,92.22 0 0 0 1.71,-18.15 z"
     id="path181"
     inkscape:connector-curvature="0"
     style="fill:#ffffff" />
  <path
     class="cls-1"
     d="m 1604.0346,1176.7892 a 3.2,3.2 0 0 1 -0.57,1.86 3.91,3.91 0 0 1 -2.06,1.34 20.22,20.22 0 0 1 -4,0.83 52,52 0 0 1 -6.31,0.31 50.8,50.8 0 0 1 -6.2,-0.31 19.16,19.16 0 0 1 -3.93,-0.83 4.27,4.27 0 0 1 -2.06,-1.34 3,3 0 0 1 -0.63,-1.86 v -108.84 h -0.2 l -38.76,108.74 a 5.1,5.1 0 0 1 -1.35,2.23 6.55,6.55 0 0 1 -2.53,1.39 17.08,17.08 0 0 1 -4.09,0.68 q -2.48,0.15 -6,0.15 a 59.59,59.59 0 0 1 -6,-0.26 17.34,17.34 0 0 1 -4.09,-0.83 7.44,7.44 0 0 1 -2.53,-1.39 4,4 0 0 1 -1.24,-2 l -37.38,-108.71 h -0.21 v 108.85 a 3.2,3.2 0 0 1 -0.57,1.86 4,4 0 0 1 -2.12,1.34 21.23,21.23 0 0 1 -4,0.83 62.66,62.66 0 0 1 -12.45,0 19.9,19.9 0 0 1 -4,-0.83 4,4 0 0 1 -2.07,-1.34 3.2,3.2 0 0 1 -0.57,-1.86 v -119.2 q 0,-5.26 2.79,-8.06 a 10.07,10.07 0 0 1 7.44,-2.79 h 17.79 a 37.14,37.14 0 0 1 8.16,0.77 15.74,15.74 0 0 1 5.89,2.59 14.64,14.64 0 0 1 4.14,4.75 33.93,33.93 0 0 1 2.89,7.29 l 29,79.7 h 0.41 l 30,-79.49 a 41.41,41.41 0 0 1 2.94,-7.34 17.16,17.16 0 0 1 3.72,-4.86 12.42,12.42 0 0 1 5,-2.64 26,26 0 0 1 6.72,-0.77 h 18.29 a 14.29,14.29 0 0 1 4.81,0.72 8.29,8.29 0 0 1 3.31,2.12 9.31,9.31 0 0 1 2,3.41 14.46,14.46 0 0 1 0.67,4.6 z"
     id="path183"
     inkscape:connector-curvature="0"
     style="fill:#ffffff" />
  <path
     class="cls-1"
     d="m 1712.4746,1169.8592 a 41.07,41.07 0 0 1 -0.26,5 12.48,12.48 0 0 1 -0.78,3.25 4.08,4.08 0 0 1 -1.29,1.81 2.79,2.79 0 0 1 -1.7,0.57 h -67.2 a 8.41,8.41 0 0 1 -5.73,-2 q -2.32,-2 -2.33,-6.56 v -116.6 q 0,-4.55 2.33,-6.57 a 8.45,8.45 0 0 1 5.73,-2 h 66.79 a 2.77,2.77 0 0 1 1.65,0.52 4,4 0 0 1 1.24,1.8 14.55,14.55 0 0 1 0.78,3.31 44.49,44.49 0 0 1 0.25,5.12 42.28,42.28 0 0 1 -0.25,4.91 13.56,13.56 0 0 1 -0.78,3.26 4.42,4.42 0 0 1 -1.24,1.8 2.62,2.62 0 0 1 -1.65,0.57 h -47.76 v 32.67 h 40.42 a 2.88,2.88 0 0 1 1.7,0.56 4.21,4.21 0 0 1 1.29,1.76 12.23,12.23 0 0 1 0.78,3.21 47,47 0 0 1 0,9.87 12,12 0 0 1 -0.78,3.15 3.74,3.74 0 0 1 -1.29,1.71 3.06,3.06 0 0 1 -1.7,0.52 h -40.42 v 37.72 h 48.2 a 2.85,2.85 0 0 1 1.7,0.57 4.08,4.08 0 0 1 1.29,1.81 12.68,12.68 0 0 1 0.78,3.26 40.78,40.78 0 0 1 0.23,5 z"
     id="path185"
     inkscape:connector-curvature="0"
     style="fill:#ffffff" />
  <polygon
     class="cls-1"
     points="614.47,752.53 922.83,965.52 904.14,992.58 613.12,791.57 327.67,960.68 327.67,1242.33 872.44,1242.33 872.44,1275.22 294.78,1275.22 294.78,941.94 "
     id="polygon187"
     transform="translate(8.4746017,16.949139)"
     style="fill:#ffffff" />
  <polygon
     class="cls-1"
     points="376.05,964 368.03,964 613.19,818.75 614.3,819.49 823.48,964 816.29,964 613.02,823.6 "
     id="polygon189"
     transform="translate(8.4746017,16.949139)"
     style="fill:#ffffff" />
  <polygon
     class="cls-1"
     points="753.6,871.75 747.32,861.15 910.05,764.73 1211.4,972.88 1704,972.88 1704,985.22 1207.56,985.22 909.54,779.37 "
     id="polygon191"
     transform="translate(8.4746017,16.949139)"
     style="fill:#ffffff" />
  <rect
     class="cls-1"
     x="898.3645"
     y="867.33917"
     width="18.1"
     height="18.1"
     id="rect193"
     style="fill:#ffffff" />
  <rect
     class="cls-1"
     x="898.3645"
     y="890.50916"
     width="18.1"
     height="18.1"
     id="rect195"
     style="fill:#ffffff" />
  <rect
     class="cls-1"
     x="922.35449"
     y="867.33917"
     width="18.1"
     height="18.1"
     id="rect197"
     style="fill:#ffffff" />
  <rect
     class="cls-1"
     x="922.35449"
     y="890.50916"
     width="18.1"
     height="18.1"
     id="rect199"
     style="fill:#ffffff" />
  <path
     class="cls-1"
     d="m 940.47461,860.46914 h -42.1 a 21.05,21.05 0 0 1 42.1,0 z"
     id="path201"
     inkscape:connector-curvature="0"
     style="fill:#ffffff" />
  <polygon
     class="cls-1"
     points="500.65,782.76 500.65,843.52 470.22,843.52 470.22,792.91 "
     id="polygon203"
     transform="translate(8.4746017,16.949139)"
     style="fill:#ffffff" />
  <polygon
     class="cls-1"
     points="593.9,910.53 579.62,910.53 579.62,896.23 608.2,896.23 608.2,924.81 593.9,924.81 "
     id="polygon205"
     transform="translate(8.4746017,16.949139)"
     style="fill:#ffffff" />
  <polygon
     class="cls-1"
     points="593.9,945.91 579.62,945.91 579.62,931.61 608.2,931.61 608.2,960.19 593.9,960.19 "
     id="polygon207"
     transform="translate(8.4746017,16.949139)"
     style="fill:#ffffff" />
  <polygon
     class="cls-1"
     points="631.01,910.53 616.73,910.53 616.73,896.23 645.31,896.23 645.31,924.81 631.01,924.81 "
     id="polygon209"
     transform="translate(8.4746017,16.949139)"
     style="fill:#ffffff" />
  <polygon
     class="cls-1"
     points="631.01,945.91 616.73,945.91 616.73,931.61 645.31,931.61 645.31,960.19 631.01,960.19 "
     id="polygon211"
     transform="translate(8.4746017,16.949139)"
     style="fill:#ffffff" />
  <polyline
     class="cls-1"
     points="904.14 992.58 1078.44 992.58 1078.44 964 889.88 964"
     id="polyline213"
     transform="translate(8.4746017,16.949139)"
     style="fill:#ffffff" />
  <rect
     class="cls-1"
     x="-123.24064"
     y="1106.0664"
     width="4.1100001"
     height="365.17001"
     transform="rotate(-55.37)"
     id="rect215"
     style="fill:#ffffff" />
  <rect
     class="cls-1"
     x="287.1087"
     y="1140.567"
     width="154.59"
     height="4.1100001"
     transform="rotate(-30.68)"
     id="rect217"
     style="fill:#ffffff" />
  <rect
     class="cls-1"
     x="1139.6746"
     y="820.48914"
     width="4.1100001"
     height="189.03999"
     id="rect219"
     style="fill:#ffffff" />
</svg>
